<svg width="21" height="20" viewBox="0 0 21 20" fill="none" xmlns="http://www.w3.org/2000/svg">
<path d="M10.1793 6.69827C8.34764 6.69827 6.85288 8.19303 6.85288 10.0247C6.85288 11.8563 8.34764 13.3511 10.1793 13.3511C12.0109 13.3511 13.5057 11.8563 13.5057 10.0247C13.5057 8.19303 12.0109 6.69827 10.1793 6.69827ZM20.156 10.0247C20.156 8.6472 20.1685 7.2822 20.0912 5.90721C20.0138 4.31013 19.6495 2.89273 18.4816 1.72486C17.3112 0.554503 15.8963 0.192665 14.2993 0.115306C12.9218 0.0379477 11.5568 0.0504249 10.1818 0.0504249C8.80431 0.0504249 7.4393 0.0379477 6.06432 0.115306C4.46724 0.192665 3.04983 0.556998 1.88197 1.72486C0.711607 2.89522 0.349769 4.31013 0.272411 5.90721C0.195052 7.28469 0.207529 8.6497 0.207529 10.0247C0.207529 11.3997 0.195052 12.7672 0.272411 14.1421C0.349769 15.7392 0.714103 17.1566 1.88197 18.3245C3.05233 19.4949 4.46724 19.8567 6.06432 19.9341C7.4418 20.0114 8.8068 19.9989 10.1818 19.9989C11.5593 19.9989 12.9243 20.0114 14.2993 19.9341C15.8963 19.8567 17.3137 19.4924 18.4816 18.3245C19.652 17.1541 20.0138 15.7392 20.0912 14.1421C20.171 12.7672 20.156 11.4022 20.156 10.0247ZM10.1793 15.1428C7.34697 15.1428 5.06115 12.857 5.06115 10.0247C5.06115 7.19236 7.34697 4.90654 10.1793 4.90654C13.0116 4.90654 15.2974 7.19236 15.2974 10.0247C15.2974 12.857 13.0116 15.1428 10.1793 15.1428ZM15.507 5.89224C14.8458 5.89224 14.3117 5.35822 14.3117 4.69693C14.3117 4.03564 14.8458 3.50161 15.507 3.50161C16.1683 3.50161 16.7024 4.03564 16.7024 4.69693C16.7026 4.85395 16.6718 5.00947 16.6118 5.15459C16.5518 5.2997 16.4637 5.43155 16.3527 5.54258C16.2417 5.65361 16.1098 5.74165 15.9647 5.80165C15.8196 5.86165 15.6641 5.89244 15.507 5.89224Z" fill="#323232"/>
</svg>
