<svg width="17" height="21" viewBox="0 0 17 21" fill="none" xmlns="http://www.w3.org/2000/svg">
<path d="M0.15724 7.53293C0.15724 6.62501 0.31595 5.76727 0.628704 4.96672C0.927516 4.18915 1.37147 3.4755 1.9369 2.8638C2.50118 2.26013 3.14692 1.73812 3.85543 1.31287C4.58237 0.873091 5.36937 0.54131 6.19175 0.327929C7.02406 0.109377 7.8811 -0.00084184 8.74162 4.84102e-06C10.0708 4.84102e-06 11.3078 0.28125 12.455 0.841405C13.5872 1.39135 14.5508 2.23531 15.2453 3.28508C15.9618 4.35288 16.3177 5.56071 16.3177 6.90742C16.3177 7.71498 16.2384 8.50503 16.0762 9.27758C15.9169 10.0497 15.6637 10.7994 15.3223 11.51C14.9968 12.1979 14.5713 12.8338 14.0596 13.3971C13.5453 13.9513 12.9224 14.3938 12.2298 14.6971C11.4778 15.0267 10.6643 15.1925 9.84326 15.1837C9.2726 15.1837 8.70311 15.0495 8.14062 14.7799C7.57813 14.5115 7.17435 14.1428 6.93162 13.6701C6.84643 13.9981 6.72973 14.4719 6.57452 15.0915C6.42515 15.71 6.32479 16.1091 6.28044 16.29C6.23376 16.4697 6.1474 16.7697 6.02137 17.1851C5.93589 17.4924 5.82624 17.7925 5.69344 18.0825L5.292 18.8691C5.11839 19.2066 4.92431 19.5332 4.71084 19.847C4.49961 20.1528 4.23821 20.518 3.92662 20.9382L3.75274 21L3.63721 20.874C3.51234 19.5518 3.44815 18.7605 3.44815 18.4991C3.44815 17.7254 3.54035 16.8572 3.7224 15.8932C3.90095 14.9305 4.18336 13.7203 4.56263 12.2651C4.9419 10.811 5.15896 9.9556 5.21731 9.70236C4.95007 9.15738 4.8147 8.44552 4.8147 7.57027C4.8147 6.87125 5.03293 6.21656 5.47055 5.60039C5.90934 4.98656 6.46366 4.67964 7.13584 4.67964C7.65049 4.67964 8.0496 4.85002 8.33551 5.19195C8.62259 5.53271 8.76263 5.96216 8.76263 6.48614C8.76263 7.04163 8.57824 7.84568 8.20714 8.89714C7.83604 9.94977 7.65165 10.7352 7.65165 11.2568C7.65165 11.7854 7.84071 12.2277 8.21881 12.5743C8.59195 12.9211 9.08541 13.109 9.59469 13.0983C10.0568 13.0983 10.4851 12.9933 10.883 12.7821C11.2748 12.577 11.6138 12.2843 11.8738 11.9266C12.4401 11.1498 12.8437 10.2666 13.0607 9.33009C13.1727 8.83762 13.259 8.36966 13.3127 7.92971C13.3699 7.48742 13.3944 7.06963 13.3944 6.67286C13.3944 5.21762 12.9323 4.0833 12.0139 3.27108C11.0908 2.45885 9.88877 2.05508 8.4102 2.05508C6.72856 2.05508 5.32234 2.59889 4.19619 3.69003C3.06888 4.77766 2.50172 6.16055 2.50172 7.83751C2.50172 8.20745 2.55774 8.56455 2.66394 8.90998C2.7678 9.25424 2.881 9.52848 3.00353 9.73154C3.1249 9.93109 3.23926 10.126 3.34312 10.3057C3.44815 10.4854 3.503 10.6138 3.503 10.6908C3.503 10.9265 3.44115 11.2335 3.31628 11.6127C3.18675 11.992 3.03387 12.1811 2.84949 12.1811C2.83198 12.1811 2.75963 12.1682 2.63359 12.1414C2.1971 12.0111 1.8029 11.7675 1.49111 11.4353C1.1602 11.0911 0.899042 10.6861 0.722063 10.2427C0.545588 9.8008 0.408137 9.34432 0.311282 8.87847C0.20664 8.43767 0.154928 7.98597 0.15724 7.53293Z" fill="#323232"/>
</svg>
