<svg width="22" height="18" viewBox="0 0 22 18" fill="none" xmlns="http://www.w3.org/2000/svg">
<path d="M21.2068 2.1274C20.4345 2.46053 19.5941 2.70029 18.7285 2.79367C19.6272 2.25973 20.3002 1.41621 20.6213 0.421355C19.7779 0.923046 18.854 1.27484 17.8906 1.46113C17.4879 1.03065 17.0009 0.687709 16.4599 0.453677C15.9189 0.219646 15.3355 0.0995385 14.746 0.100841C12.3611 0.100841 10.4431 2.03402 10.4431 4.40633C10.4431 4.73947 10.4834 5.0726 10.5491 5.39311C6.97797 5.20636 3.79302 3.50031 1.6756 0.888246C1.28979 1.54723 1.0876 2.29756 1.09009 3.06118C1.09009 4.55523 1.84974 5.87262 3.00813 6.64741C2.32547 6.62052 1.6588 6.43289 1.06233 6.09976V6.15276C1.06233 8.24493 2.54124 9.97874 4.51228 10.3775C4.1422 10.4736 3.76149 10.5228 3.37912 10.5239C3.09899 10.5239 2.834 10.4961 2.56648 10.4583C3.11161 12.1643 4.69904 13.4034 6.58931 13.4438C5.1104 14.6022 3.25798 15.2836 1.24657 15.2836C0.885672 15.2836 0.552539 15.271 0.206787 15.2306C2.11473 16.4546 4.37852 17.1613 6.81645 17.1613C14.7309 17.1613 19.0616 10.6046 19.0616 4.9136C19.0616 4.72685 19.0616 4.54009 19.049 4.35333C19.8869 3.74007 20.6213 2.98042 21.2068 2.1274Z" fill="#323232"/>
</svg>
